<svg width="30" height="30" viewBox="0 0 44 44" fill="none" xmlns="http://www.w3.org/2000/svg">
<g id="Frame" clip-path="url(#clip0_2_5)">
<path id="Vector" d="M18.4685 21.8059C18.8696 22.8973 18.2973 24.1063 17.188 24.5078L16.9209 24.6037C15.8114 25.0019 14.5878 24.4397 14.1855 23.3473L8.75168 8.58695C8.07142 6.81617 8.28072 5.07798 9.81986 4.47822L10.3069 4.32073C11.4152 3.9215 12.1466 4.63268 12.5477 5.7241L18.4685 21.8059ZM26.2365 22.1324C26.1281 23.3409 25.0455 24.2375 23.8184 24.133L23.7206 24.1248C22.4947 24.0212 21.5883 22.9551 21.6979 21.7465L23.2174 4.87205C23.3258 3.66355 23.8309 2.79511 25.0568 2.89866L25.3307 2.95613C28.4604 3.4151 27.5449 7.5997 27.755 5.25804L26.2365 22.1324Z" fill="#EF9645"/>
<path id="Vector_2" d="M14.5029 23.8137C14.8832 24.8589 14.3452 26.0147 13.3 26.3961L12.9087 26.5385C11.8635 26.9188 10.7077 26.3809 10.3274 25.3356L5.62333 12.4142C5.24411 11.3688 5.78311 10.2119 6.82838 9.83154L7.21858 9.68922C8.26375 9.30778 9.41958 9.84688 9.80101 10.8921L14.5029 23.8137ZM19.319 20.8047C19.7135 21.8855 19.1556 23.0809 18.0747 23.4744L17.8131 23.5698C16.7322 23.9633 15.5368 23.4053 15.1433 22.3244L9.34788 6.40112C8.95329 5.32029 9.51123 4.12489 10.5922 3.73141L10.8537 3.63602C11.9347 3.24254 13.1301 3.80048 13.5246 4.88131L19.319 20.8047ZM24.9633 21.6537C24.8629 22.8002 23.8529 23.6481 22.7065 23.5476L22.4299 23.5228C21.2835 23.4223 20.4355 22.4124 20.536 21.2659L22.0128 4.38742C22.1133 3.24097 23.1232 2.39305 24.2696 2.49351L24.5461 2.51729C25.6926 2.61775 26.5406 3.6288 26.4412 4.77515L24.9633 21.6537ZM30.4852 22.276C30.3915 23.346 29.4502 24.1377 28.3791 24.044L27.8261 23.9954C26.7561 23.9016 25.9654 22.9592 26.058 21.8892L27.4635 5.84011C27.5573 4.7712 28.4996 3.97828 29.5685 4.07214L30.1226 4.1207C31.1926 4.21446 31.9834 5.15802 31.8896 6.22693L30.4852 22.276ZM35.0012 31.3011C34.5109 32.3512 33.2625 32.8062 32.2113 32.3159L31.9891 32.2116C30.9379 31.7213 30.483 30.4729 30.9744 29.4227L36.2418 18.1229C36.7322 17.0728 37.9816 16.6166 39.0328 17.1069L39.255 17.2112C40.306 17.7004 40.7601 18.9511 40.2698 20.0012L35.0012 31.3011Z" fill="#FFDC5D"/>
<path id="Vector_3" d="M8.72696 20.9383C9.3143 22.5522 9.02652 26.6952 9.29844 29.8034C9.57037 32.9115 12.8126 42.8802 23.7431 41.9239C34.6736 40.9676 34.568 31.793 35.9928 28.9558C37.4176 26.1186 34.4534 21.9801 33.3554 24.3069C32.2573 26.6336 30.2204 25.8783 30.543 21.9039C30.8656 17.9296 26.5604 16.1581 26.272 19.4401C26.0271 22.2243 24.8501 21.5198 25.2383 18.5123C25.6254 15.5037 21.0176 15.067 20.6349 19.1459C20.3542 22.1451 19.1141 20.2738 18.5244 18.62C17.9347 16.9663 13.4 17.2124 14.2198 19.7874C15.3901 23.4628 14.6081 24.2896 12.9798 19.8167C11.9464 16.9793 8.72696 20.9383 8.72696 20.9383Z" fill="#FFDC5D"/>
<path id="Vector_4" d="M31.7519 25.625C31.7772 25.6205 31.8021 25.6117 31.8272 25.6061C31.3901 25.5685 30.9955 25.1892 30.7538 24.4664C28.656 24.9266 25.7467 25.6997 23.6525 28.1393C21.0653 31.153 20.8443 34.1849 21.0425 36.183C21.2024 37.7941 22.1492 38.4808 22.198 36.0685C22.2605 32.9456 24.0184 26.9418 31.7519 25.625Z" fill="#EF9645"/>
</g>
<defs>
<clipPath id="clip0_2_5">
<rect width="40" height="40" fill="white" transform="translate(0.332993 3.81921) rotate(-5)"/>
</clipPath>
</defs>
</svg>
