<svg width="239" height="64" viewBox="0 0 239 64" fill="none" xmlns="http://www.w3.org/2000/svg">
<path d="M95.0893 24.4477H98.3388V39.4184H95.0893V37.2625C93.8549 38.9694 92.1097 39.8077 89.8231 39.8077C87.7466 39.8077 86.001 39.0592 84.5265 37.5321C83.0518 36.0051 82.3298 34.1189 82.3298 31.9334C82.3298 29.7173 83.0518 27.8612 84.5265 26.334C86.001 24.8069 87.7466 24.0586 89.8231 24.0586C92.1097 24.0586 93.8549 24.8968 95.0893 26.5738V24.4477ZM90.3347 36.7239C91.6887 36.7239 92.8316 36.2749 93.7351 35.3763C94.6379 34.4481 95.0893 33.3105 95.0893 31.9334C95.0893 30.5557 94.6379 29.4182 93.7351 28.5199C92.8316 27.5917 91.6887 27.1426 90.3347 27.1426C88.9798 27.1426 87.8365 27.5917 86.9337 28.5199C86.0311 29.4182 85.5797 30.5557 85.5797 31.9334C85.5797 33.3105 86.0311 34.4481 86.9337 35.3763C87.8365 36.2749 88.9798 36.7239 90.3347 36.7239Z" fill="#231F20"/>
<path d="M107.609 30.526C109.926 31.0351 112.935 31.9933 112.875 35.1969C112.875 36.6339 112.303 37.7715 111.19 38.5802C110.077 39.3884 108.692 39.8077 107.007 39.8077C104.027 39.8077 101.831 38.4903 100.868 36.3043L103.667 34.6877C104.178 36.1251 105.292 36.8433 107.007 36.8433C108.722 36.8433 109.565 36.2749 109.565 35.1669C109.565 34.2087 108.301 33.6397 106.706 33.2506C104.449 32.6815 101.409 31.7836 101.47 28.6394C101.47 27.2622 101.981 26.1547 103.035 25.3159C104.088 24.4777 105.412 24.0586 106.977 24.0586C109.474 24.0586 111.491 25.2265 112.544 27.1726L109.805 28.6994C109.294 27.5619 108.331 26.9929 106.977 26.9929C105.743 26.9929 104.78 27.532 104.78 28.5799C104.78 29.568 106.044 30.0771 107.609 30.526Z" fill="#231F20"/>
<path d="M123.995 27.5596H120.263V34.7455C120.263 36.6619 121.528 36.6318 123.995 36.512V39.4163C119.03 40.0153 117.014 38.668 117.014 34.7455V27.5596H114.245V24.4456H117.014V21.2121L120.263 20.2539V24.4456H123.995V27.5596Z" fill="#231F20"/>
<path d="M138.18 24.4477H141.431V39.4184H138.18V37.2625C136.947 38.9694 135.202 39.8077 132.914 39.8077C130.838 39.8077 129.093 39.0592 127.618 37.5321C126.144 36.0051 125.421 34.1189 125.421 31.9334C125.421 29.7173 126.144 27.8612 127.618 26.334C129.093 24.8069 130.838 24.0586 132.914 24.0586C135.202 24.0586 136.947 24.8968 138.18 26.5738V24.4477ZM133.426 36.7239C134.78 36.7239 135.924 36.2749 136.826 35.3763C137.729 34.4481 138.18 33.3105 138.18 31.9334C138.18 30.5557 137.729 29.4182 136.826 28.5199C135.924 27.5917 134.78 27.1426 133.426 27.1426C132.072 27.1426 130.928 27.5917 130.025 28.5199C129.123 29.4182 128.671 30.5557 128.671 31.9334C128.671 33.3105 129.123 34.4481 130.025 35.3763C130.928 36.2749 132.072 36.7239 133.426 36.7239Z" fill="#231F20"/>
<path d="M158.696 30.2266V39.4184H155.446V30.5557C155.446 28.3102 154.152 27.0828 152.076 27.0828C149.789 27.0828 148.254 28.49 148.254 31.3943V39.4184H145.004V24.4477H148.254V26.3639C149.247 24.8369 150.782 24.0586 152.918 24.0586C156.379 24.0586 158.696 26.3939 158.696 30.2266Z" fill="#231F20"/>
<path d="M173.954 24.4477H177.204V39.4184H173.954V37.2625C172.719 38.9694 170.974 39.8077 168.687 39.8077C166.611 39.8077 164.865 39.0592 163.391 37.5321C161.917 36.0051 161.194 34.1189 161.194 31.9334C161.194 29.7173 161.917 27.8612 163.391 26.334C164.865 24.8069 166.611 24.0586 168.687 24.0586C170.974 24.0586 172.719 24.8968 173.954 26.5738V24.4477ZM169.198 36.7239C170.553 36.7239 171.697 36.2749 172.599 35.3763C173.502 34.4481 173.954 33.3105 173.954 31.9334C173.954 30.5557 173.502 29.4182 172.599 28.5199C171.697 27.5917 170.553 27.1426 169.198 27.1426C167.844 27.1426 166.701 27.5917 165.799 28.5199C164.895 29.4182 164.444 30.5557 164.444 31.9334C164.444 33.3105 164.895 34.4481 165.799 35.3763C166.701 36.2749 167.844 36.7239 169.198 36.7239Z" fill="#231F20"/>
<path d="M202.213 30.226V39.4178H198.963V30.5551C198.963 28.3097 197.67 27.0822 195.594 27.0822C193.305 27.0822 191.77 28.4894 191.77 31.3939V39.4178H188.522V18.459H191.77V26.3635C192.764 24.8363 194.298 24.058 196.435 24.058C199.895 24.058 202.213 26.3933 202.213 30.226Z" fill="#231F20"/>
<path d="M215.767 24.4453H219.016V39.4161H215.767V37.4998C214.774 39.0268 213.24 39.8051 211.103 39.8051C207.643 39.8051 205.325 37.47 205.325 33.6374V24.4453H208.575V33.3082C208.575 35.5536 209.87 36.7814 211.946 36.7814C214.233 36.7814 215.767 35.3737 215.767 32.4694V24.4453Z" fill="#231F20"/>
<path d="M236.389 26.3334C237.863 27.8606 238.585 29.7169 238.585 31.9328C238.585 34.1183 237.863 36.0047 236.389 37.5316C234.914 39.0588 233.168 39.8071 231.092 39.8071C228.806 39.8071 227.06 38.9688 225.825 37.2619V39.4178H222.575V18.459H225.825V26.5732C227.06 24.8962 228.806 24.058 231.092 24.058C233.168 24.058 234.914 24.8065 236.389 26.3334ZM230.581 36.7233C231.934 36.7233 233.078 36.2743 233.98 35.3757C234.883 34.4475 235.335 33.3099 235.335 31.9328C235.335 30.5551 234.883 29.4176 233.98 28.5195C233.078 27.5913 231.934 27.1421 230.581 27.1421C229.226 27.1421 228.082 27.5913 227.18 28.5195C226.277 29.4176 225.825 30.5551 225.825 31.9328C225.825 33.3099 226.277 34.4475 227.18 35.3757C228.082 36.2743 229.226 36.7233 230.581 36.7233Z" fill="#231F20"/>
<path d="M61.7732 40.7404C61.7252 40.9055 61.6762 41.0701 61.6256 41.2342L61.5768 41.3909C61.5147 41.5882 61.4504 41.7845 61.3845 41.9801L61.3394 42.1137C61.2702 42.3155 61.199 42.5165 61.1259 42.7166L61.0746 42.8562C61.0018 43.053 60.9268 43.2487 60.8502 43.4437L60.792 43.5902C60.7144 43.7847 60.6352 43.9783 60.5537 44.1708L60.4919 44.3154C60.4128 44.5 60.3319 44.6838 60.2496 44.8665L60.18 45.0191C60.0978 45.1985 60.014 45.377 59.9285 45.5547L59.8516 45.7137C59.7666 45.8883 59.6798 46.062 59.5915 46.2346L59.508 46.3972C59.4179 46.571 59.326 46.744 59.233 46.9158L59.151 47.0666C59.0543 47.2428 58.9559 47.4178 58.8558 47.5919L58.7655 47.7481C58.6659 47.9193 58.5648 48.0893 58.4622 48.2585L58.3685 48.4113C58.2682 48.5745 58.1665 48.7368 58.0631 48.8981L57.9571 49.0626C57.8563 49.2178 57.7542 49.3722 57.6507 49.5258L57.5323 49.7001C57.4291 49.8512 57.3243 50.0012 57.2183 50.1504L57.094 50.3247C56.9872 50.473 56.8792 50.6204 56.7697 50.7669L56.6438 50.935C56.5327 51.0819 56.4201 51.2277 56.3065 51.3726L56.1737 51.541C56.0571 51.6877 55.9391 51.8333 55.8199 51.978L55.6856 52.1398C55.5733 52.2742 55.4597 52.4076 55.3453 52.5401C55.2913 52.6026 55.2372 52.665 55.1826 52.7268C55.0723 52.8527 54.9608 52.9776 54.8484 53.1018L54.6645 53.3031C54.5542 53.4229 54.4427 53.5418 54.3306 53.6599C54.2671 53.7267 54.2034 53.7933 54.1393 53.8596C54.026 53.9768 53.9117 54.0933 53.7967 54.2087C53.734 54.2715 53.6713 54.3339 53.6081 54.3962C53.487 54.5159 53.3648 54.6345 53.2417 54.7522L53.08 54.9061C52.9473 55.031 52.8135 55.1547 52.6789 55.2775C52.6143 55.3364 52.5488 55.395 52.4837 55.4532C52.3633 55.5612 52.2419 55.6685 52.1196 55.7747C52.0537 55.8321 51.9873 55.8892 51.9207 55.946C51.7979 56.0509 51.6743 56.1551 51.5499 56.258C51.4822 56.3141 51.4141 56.3704 51.3461 56.4259C51.2173 56.5307 51.088 56.6341 50.9576 56.737C50.8942 56.7872 50.8305 56.8374 50.7664 56.8871C50.6331 56.9907 50.4987 57.0931 50.3635 57.1947C50.2836 57.2546 50.2036 57.3143 50.1232 57.3737C49.9968 57.4669 49.8696 57.5592 49.7417 57.6506C49.6626 57.707 49.5832 57.7631 49.5036 57.8191C49.373 57.9108 49.2414 58.0014 49.1091 58.0912C49.0269 58.1471 48.9442 58.2024 48.8614 58.2576C48.7215 58.3508 48.581 58.443 48.4394 58.5339C48.3694 58.579 48.2989 58.6235 48.2283 58.6682C48.0779 58.7632 47.9269 58.8574 47.7748 58.9499C47.7099 58.9896 47.6443 59.0287 47.579 59.0677C47.429 59.1577 47.2782 59.2464 47.1265 59.3339L46.9291 59.4467C46.7742 59.5346 46.6185 59.6213 46.4621 59.7066L46.2727 59.809C46.1103 59.896 45.947 59.9816 45.7831 60.066L45.6071 60.1561C45.4328 60.2444 45.2578 60.3308 45.0819 60.4158L44.9377 60.4856C44.7518 60.5744 44.5646 60.661 44.3765 60.7463L44.224 60.8153C44.0285 60.9027 43.8319 60.9882 43.6343 61.0719L43.5073 61.1253C43.3065 61.2091 43.1047 61.2913 42.902 61.3713L42.779 61.419C42.5806 61.4963 42.3812 61.5718 42.181 61.6451L42.0562 61.6903C41.8557 61.7628 41.6542 61.8334 41.4518 61.9021L41.3297 61.943C41.1252 62.0114 40.9194 62.0779 40.7131 62.1422L40.5939 62.1791C40.3858 62.2431 40.1765 62.305 39.9666 62.3649L39.8507 62.3979C39.635 62.4584 39.4184 62.5168 39.2009 62.573L39.1029 62.5984C38.8708 62.6575 38.6379 62.7139 38.404 62.7679L38.3586 62.7786C38.1086 62.8359 37.8576 62.8905 37.6052 62.9419L37.5814 62.9466C37.3347 62.9967 37.0869 63.0439 36.8382 63.0883L36.7767 63.0989C36.5385 63.1409 36.2994 63.1803 36.0595 63.2172L35.9829 63.2286C35.7472 63.2642 35.5108 63.2972 35.2734 63.3274L35.1898 63.3379C34.9531 63.3676 34.7157 63.3945 34.4777 63.4189L34.3956 63.4271C34.1543 63.4513 33.9122 63.4724 33.6692 63.4913L33.5987 63.4967C33.3497 63.5154 33.0996 63.531 32.849 63.544L32.7988 63.5466C32.5386 63.5597 32.2774 63.5694 32.0157 63.5763L31.9943 63.577C31.7233 63.5838 31.4515 63.5871 31.1788 63.5871C30.9063 63.5871 30.6345 63.5838 30.3635 63.577L30.3418 63.5763C30.0801 63.5696 29.8194 63.5596 29.5593 63.5466L29.5082 63.544C29.2578 63.5312 29.0083 63.5154 28.7593 63.4967L28.6882 63.4913C28.4454 63.4726 28.2036 63.4511 27.9625 63.4271L27.8796 63.4188C27.6416 63.3945 27.4044 63.3674 27.168 63.3379L27.0844 63.3274C26.847 63.297 26.6106 63.2642 26.3749 63.2286L26.2983 63.2172C26.0591 63.1806 25.8209 63.1413 25.5835 63.0994L25.5184 63.0881C25.2712 63.0439 25.0248 62.997 24.7795 62.9471L24.7513 62.9415C24.4999 62.8902 24.2497 62.836 24.0007 62.7789L23.951 62.7673C23.7179 62.7136 23.486 62.6572 23.2549 62.5984L23.1567 62.573C22.9393 62.5168 22.7226 62.4584 22.5071 62.3979L22.391 62.3649C22.1818 62.3053 21.9733 62.2436 21.7657 62.1798L21.6439 62.1419C21.4388 62.0779 21.2344 62.0121 21.0311 61.9441L20.9034 61.9011C20.7023 61.833 20.5026 61.7628 20.3035 61.6909L20.1765 61.645C19.9779 61.5723 19.7801 61.4973 19.5834 61.4208L19.4532 61.3701C19.2533 61.2913 19.0544 61.2103 18.8565 61.1276L18.7162 61.0688C18.5214 60.9863 18.3276 60.9019 18.1347 60.8156L17.979 60.7454C17.7927 60.6609 17.6075 60.5749 17.423 60.4869L17.2707 60.4131C17.0966 60.3289 16.9233 60.2437 16.751 60.1564C16.691 60.126 16.6314 60.095 16.5715 60.0643C16.4089 59.9805 16.2467 59.8956 16.0857 59.8093L15.8925 59.7046C15.7371 59.6198 15.5826 59.5338 15.4288 59.4467L15.2313 59.3339C15.0796 59.2464 14.9288 59.1577 14.7788 59.0677L14.5829 58.9499C14.4317 58.8579 14.2814 58.7643 14.1319 58.6698C14.0568 58.6224 13.982 58.5749 13.9074 58.5269C13.7696 58.4382 13.6326 58.3483 13.4963 58.2576C13.4123 58.2018 13.3287 58.1455 13.2453 58.0889C13.1154 58.0006 12.9859 57.9116 12.8575 57.8214C12.7767 57.7648 12.6964 57.7078 12.6161 57.6506C12.4882 57.5592 12.361 57.4668 12.2346 57.3737C12.1527 57.3133 12.0713 57.2526 11.9901 57.1916C11.8578 57.0919 11.7261 56.9918 11.5955 56.8903C11.5295 56.8391 11.4638 56.7872 11.3983 56.7355C11.2686 56.6333 11.1398 56.5301 11.0118 56.4259C10.9436 56.3702 10.8756 56.3141 10.8079 56.258C10.6834 56.1551 10.5598 56.0509 10.437 55.946C10.3704 55.8892 10.3041 55.8321 10.238 55.7747C10.1158 55.6685 9.99456 55.5614 9.874 55.4532C9.80887 55.395 9.74363 55.3364 9.67884 55.2775C9.5441 55.1547 9.41042 55.031 9.2778 54.9061L9.11598 54.7522C8.99376 54.6355 8.87261 54.5175 8.75228 54.3989C8.68834 54.3357 8.62462 54.2725 8.56115 54.2087C8.44602 54.0933 8.33184 53.9768 8.21849 53.8596C8.15443 53.7933 8.0906 53.7267 8.02712 53.6599C7.91496 53.5418 7.80372 53.4229 7.69334 53.3031L7.50929 53.1018C7.39842 52.9792 7.28838 52.856 7.17939 52.7317L7.01026 52.5376C6.89678 52.4062 6.78438 52.2741 6.67314 52.1408L6.53343 51.9726C6.41583 51.8298 6.29951 51.6861 6.1844 51.5413C6.1383 51.4834 6.09255 51.4252 6.04692 51.3671C5.93841 51.2286 5.83097 51.0892 5.72471 50.9489C5.67707 50.8861 5.6298 50.8229 5.58264 50.7599C5.47732 50.6186 5.3732 50.4763 5.27013 50.3334L5.13313 50.1415C5.0317 49.9986 4.93137 49.8547 4.83231 49.71L4.70004 49.515C4.60099 49.368 4.50313 49.2199 4.40644 49.0713L4.28789 48.8873C4.1886 48.7321 4.09072 48.576 3.99415 48.4191L3.89167 48.2519C3.79179 48.0875 3.69369 47.9219 3.59677 47.7555L3.49784 47.5845C3.40056 47.4151 3.30481 47.2446 3.21061 47.0732L3.1203 46.9074C3.03094 46.7423 2.94288 46.5764 2.85637 46.4097L2.76145 46.2249C2.67635 46.0582 2.59266 45.8906 2.51039 45.7223L2.42376 45.5432C2.34196 45.3729 2.26171 45.2019 2.18286 45.0299L2.10308 44.8547C2.02294 44.6769 1.94445 44.4984 1.8675 44.319L1.80132 44.1639C1.72094 43.9736 1.64245 43.7822 1.56574 43.5902L1.50759 43.4437C1.431 43.2492 1.35629 43.0538 1.28348 42.8574L1.22958 42.7102C1.15736 42.5121 1.0868 42.3134 1.01836 42.1137L0.973327 41.9801C0.907371 41.7845 0.843307 41.5882 0.781016 41.3909L0.732201 41.2342C0.681375 41.0703 0.632558 40.9054 0.584451 40.7404C0.214249 39.347 0.93704 37.8741 2.29114 37.3417C9.18181 34.6332 19.5646 32.9091 31.1788 32.9091C42.7933 32.9091 53.176 34.6332 60.0666 37.3417C61.4208 37.8741 62.1436 39.347 61.7732 40.7404ZM0.584333 23.0467C0.632913 22.8803 0.681965 22.7139 0.733264 22.5485L0.779599 22.4002C0.842717 22.2001 0.907608 22.0011 0.974509 21.8028L1.01742 21.6757C1.0868 21.4728 1.15843 21.271 1.23183 21.07L1.28147 20.9346C1.35535 20.7352 1.43123 20.5368 1.50889 20.3394L1.56421 20.2001C1.6421 20.0048 1.72189 19.8101 1.80367 19.6168L1.86408 19.4754C1.94315 19.2911 2.02365 19.1075 2.10604 18.925L2.18051 18.7615C2.26005 18.5881 2.34114 18.4153 2.42376 18.2433L2.50945 18.0662C2.59266 17.8956 2.67754 17.7257 2.76382 17.5567L2.85247 17.3842C2.94088 17.2139 3.03071 17.0444 3.12208 16.8758L3.21048 16.7135C3.30469 16.542 3.40044 16.3716 3.49784 16.202L3.59677 16.031C3.6944 15.8631 3.79345 15.6963 3.89404 15.5306L3.99108 15.3722C4.08895 15.2131 4.18824 15.0548 4.28882 14.8976L4.40644 14.7153C4.50371 14.5655 4.60217 14.4166 4.70194 14.2686L4.83231 14.0766C4.93219 13.9308 5.03337 13.7856 5.13561 13.6414L5.26835 13.4556C5.37236 13.3113 5.47732 13.1678 5.5837 13.0253L5.71738 12.8471C5.82708 12.7021 5.93818 12.5581 6.05036 12.415L6.18415 12.2455C6.30047 12.099 6.41807 11.9538 6.5371 11.8095L6.67243 11.6466C6.78627 11.5104 6.90116 11.3752 7.01723 11.2409L7.17408 11.0607C7.28731 10.9317 7.40149 10.8036 7.51674 10.6765L7.68683 10.4903C7.80137 10.3657 7.91708 10.2423 8.03363 10.1196L8.21175 9.93378C8.32771 9.81382 8.44437 9.69479 8.56211 9.57672C8.62521 9.51344 8.68868 9.45041 8.75228 9.38761C8.87261 9.26895 8.99376 9.15097 9.11598 9.0342L9.2778 8.88037C9.41029 8.75547 9.5441 8.63175 9.67884 8.50897C9.7435 8.45004 9.80874 8.39159 9.874 8.33314C9.99467 8.22517 10.1158 8.11792 10.238 8.01172C10.3038 7.95468 10.3697 7.89776 10.4359 7.84119C10.5608 7.73452 10.6866 7.62879 10.8131 7.52401C10.8776 7.47061 10.9422 7.41735 11.0072 7.36442C11.1371 7.25844 11.268 7.15378 11.3997 7.04982C11.4646 6.99865 11.5294 6.94739 11.5946 6.8967C11.728 6.7932 11.8624 6.69111 11.9973 6.58963C12.0714 6.534 12.1457 6.47825 12.2203 6.42321C12.3522 6.32583 12.4849 6.22975 12.6184 6.13436C12.6978 6.07756 12.7774 6.02111 12.8575 5.965C12.9859 5.87493 13.1154 5.78577 13.2453 5.69757C13.3287 5.64089 13.4123 5.58466 13.4963 5.5288C13.6327 5.43814 13.7696 5.34816 13.9074 5.2595C13.982 5.21151 14.0568 5.16399 14.1319 5.11659C14.2814 5.02215 14.4317 4.92855 14.5829 4.83646C14.6475 4.79717 14.7125 4.75836 14.7773 4.71955C14.9299 4.62818 15.0832 4.53797 15.2373 4.44906L15.422 4.34344C15.5785 4.25478 15.7358 4.16728 15.8938 4.08107L16.0857 3.9771C16.2467 3.89078 16.4088 3.80587 16.5715 3.72213C16.6314 3.69131 16.691 3.66038 16.751 3.63004C16.9233 3.54279 17.0966 3.45752 17.2707 3.37332L17.423 3.29945C17.6073 3.21136 17.7927 3.12551 17.979 3.04107L18.1347 2.97074C18.3276 2.88454 18.5214 2.80021 18.7162 2.71765L18.8565 2.65885C19.0544 2.57617 19.2533 2.49502 19.4532 2.41622L19.5834 2.36566C19.7801 2.28909 19.9779 2.21418 20.1765 2.14138L20.3035 2.09552C20.5024 2.02354 20.7023 1.95332 20.9034 1.88523L21.0311 1.84231C21.2344 1.77445 21.4388 1.70846 21.6439 1.6445L21.7657 1.60662C21.9733 1.54288 22.1818 1.48125 22.391 1.42151L22.5071 1.38846C22.7226 1.32777 22.9393 1.26956 23.1567 1.21346L23.2549 1.18806C23.4858 1.12914 23.7179 1.0728 23.951 1.01906L24.0007 1.00741C24.2497 0.950256 24.4999 0.896156 24.7513 0.84488L24.7795 0.839235C25.0248 0.789369 25.2712 0.742562 25.5184 0.698342L25.5835 0.687051C25.8209 0.645184 26.0593 0.605903 26.2983 0.569209L26.3749 0.557801C26.6106 0.522284 26.847 0.489354 27.0844 0.459011L27.168 0.448545C27.4044 0.419026 27.6416 0.392093 27.8796 0.367631L27.9625 0.359281C28.2036 0.335289 28.4454 0.313885 28.6882 0.295186L28.7593 0.289657C29.0083 0.271076 29.2578 0.255434 29.5082 0.242498L29.5593 0.239793C29.8194 0.226857 30.0801 0.21686 30.3418 0.210156L30.3635 0.209451C30.6344 0.202747 30.9063 0.199219 31.1788 0.199219C31.4515 0.199219 31.7233 0.202511 31.9943 0.209451L32.0157 0.210156C32.2774 0.21686 32.5384 0.226739 32.7988 0.239793L32.849 0.242498C33.0996 0.255434 33.3495 0.271076 33.5987 0.289657L33.6692 0.295186C33.9122 0.313885 34.1543 0.335173 34.3956 0.359281L34.4777 0.367514C34.7157 0.391859 34.9531 0.418908 35.1898 0.448545L35.2734 0.459011C35.5107 0.489237 35.7472 0.522284 35.9829 0.557801L36.0595 0.569209C36.2994 0.606021 36.5385 0.645537 36.7767 0.687522L36.8382 0.698107C37.0869 0.742444 37.3347 0.789722 37.5814 0.839823L37.6052 0.844528C37.8576 0.895921 38.1086 0.950374 38.3586 1.00777L38.404 1.01847C38.6381 1.07245 38.8708 1.12902 39.1029 1.18806L39.2009 1.21346C39.4184 1.26956 39.635 1.32789 39.8507 1.38846L39.9666 1.42151C40.1765 1.48149 40.3858 1.54323 40.5939 1.60721L40.7131 1.64414C40.9194 1.70846 41.1252 1.77491 41.3297 1.84336L41.4518 1.88428C41.6542 1.95298 41.8557 2.02366 42.0562 2.09622L42.181 2.14127C42.3814 2.21452 42.5806 2.29016 42.779 2.36742L42.902 2.41517C43.1048 2.49502 43.3065 2.57722 43.5073 2.66119L43.6343 2.71448C43.8319 2.79809 44.0285 2.8836 44.224 2.9711L44.3765 3.04012C44.5646 3.12539 44.7518 3.21207 44.9377 3.30087L45.0819 3.37061C45.2578 3.45575 45.4328 3.54208 45.6071 3.63029L45.7831 3.72049C45.947 3.80481 46.1103 3.89042 46.2727 3.97746L46.4607 4.0793C46.6199 4.1661 46.7783 4.25407 46.9356 4.34344L47.1204 4.44906C47.2746 4.53797 47.428 4.62818 47.5805 4.71955C47.6453 4.75836 47.7102 4.79717 47.7748 4.83646C47.9269 4.92912 48.0779 5.02322 48.2283 5.11824C48.2989 5.16282 48.3694 5.20739 48.4394 5.25244C48.581 5.34347 48.7215 5.43566 48.8614 5.5288C48.9442 5.58396 49.0269 5.63936 49.1091 5.69522C49.2413 5.78495 49.373 5.87575 49.5036 5.96737C49.5824 6.02264 49.6611 6.07838 49.7394 6.13436C49.8728 6.22975 50.0057 6.32583 50.1375 6.42321C50.2107 6.47719 50.2836 6.53177 50.3565 6.58644C50.494 6.68994 50.6311 6.79413 50.7671 6.89975C50.8305 6.94903 50.8933 6.99865 50.9563 7.04841C51.0885 7.15284 51.2201 7.25799 51.3507 7.36442L51.5446 7.52401C51.6712 7.62879 51.797 7.73452 51.9219 7.84119C51.988 7.89776 52.0541 7.95468 52.1196 8.01172C52.2418 8.11805 52.3633 8.22517 52.4837 8.33314C52.549 8.39147 52.6141 8.45004 52.6789 8.50897C52.8137 8.63162 52.9475 8.75536 53.08 8.88037L53.2417 9.0342C53.3648 9.15193 53.487 9.27059 53.6081 9.39019C53.6709 9.45217 53.7336 9.51426 53.7957 9.57672C53.9134 9.69479 54.0301 9.81382 54.146 9.93378C54.2055 9.99551 54.265 10.0574 54.3242 10.1196C54.4407 10.2423 54.5565 10.3657 54.6709 10.4903L54.841 10.6765C54.9577 10.8051 55.0731 10.9347 55.1877 11.0653L55.3386 11.2385C55.4556 11.3739 55.5717 11.5103 55.6864 11.6478L55.8165 11.8042C55.9368 11.9504 56.056 12.0977 56.174 12.2459L56.3032 12.4096C56.4206 12.5592 56.537 12.7099 56.6515 12.8617L56.7686 13.0179C56.8789 13.1656 56.9879 13.3143 57.0955 13.464L57.2162 13.6327C57.3229 13.7832 57.4282 13.9343 57.5323 14.0865L57.6488 14.2582C57.7529 14.4125 57.8556 14.5678 57.9571 14.724L58.0623 14.887C58.1668 15.0504 58.27 15.2147 58.3716 15.38L58.4597 15.5241C58.5633 15.6945 58.6651 15.866 58.7655 16.0384L58.8558 16.1947C58.9559 16.3689 59.0543 16.5438 59.151 16.7201L59.2312 16.8675C59.3264 17.043 59.4202 17.2196 59.5121 17.3972L59.5891 17.547C59.6785 17.7219 59.7663 17.8979 59.8524 18.0746L59.9285 18.2318C60.0148 18.4112 60.0993 18.5914 60.1823 18.7725L60.2463 18.9128C60.3311 19.1006 60.4141 19.2894 60.4953 19.4791L60.5514 19.6103C60.634 19.8059 60.7146 20.0025 60.7935 20.2001L60.8489 20.3394C60.9268 20.5373 61.0028 20.736 61.0767 20.9359L61.1237 21.0639C61.1979 21.2669 61.2702 21.4707 61.3404 21.6757L61.3833 21.8028C61.45 22.0011 61.5151 22.2001 61.5781 22.4002L61.6245 22.5485C61.6757 22.7139 61.7249 22.8803 61.7734 23.0467C62.1431 24.44 61.4205 25.9126 60.0666 26.4446C53.176 29.1532 42.7933 30.8774 31.1788 30.8774C19.5646 30.8774 9.18181 29.1532 2.29114 26.4446C0.937277 25.9126 0.214723 24.44 0.584333 23.0467Z" fill="#E7E8E9"/>
<path d="M57.8886 36.5563C55.6681 49.233 44.5552 58.8709 31.1789 58.8709C17.8026 58.8709 6.68973 49.233 4.46924 36.5563C11.2785 34.3039 20.73 32.9091 31.1788 32.9091C41.6278 32.9091 51.0793 34.3039 57.8886 36.5563ZM4.46935 27.2287C6.68985 14.5518 17.8026 4.91406 31.1789 4.91406C44.5552 4.91406 55.6681 14.5518 57.8886 27.2287C51.0793 29.481 41.6278 30.8774 31.1788 30.8774C20.73 30.8774 11.2786 29.481 4.46935 27.2287Z" fill="#B9BBBD"/>
<path d="M53.2992 35.2634C51.6662 45.9588 42.3846 54.1549 31.1789 54.1549C19.9735 54.1549 10.6919 45.9588 9.05884 35.2634C15.2638 33.7822 22.9091 32.9077 31.1789 32.9077C39.449 32.9077 47.094 33.7822 53.2992 35.2634ZM9.05895 28.5202C10.692 17.8247 19.9735 9.62891 31.1789 9.62891C42.3846 9.62891 51.666 17.8247 53.299 28.5202C47.094 30.0016 39.449 30.8759 31.1789 30.8759C22.9091 30.8759 15.264 30.0016 9.05895 28.5202Z" fill="#8E9092"/>
<path d="M48.6467 34.3157C47.4607 42.86 40.0927 49.4405 31.1788 49.4405C22.2651 49.4405 14.8971 42.86 13.7109 34.3157C18.9293 33.4174 24.8724 32.9091 31.1788 32.9091C37.4854 32.9091 43.4283 33.4174 48.6467 34.3157ZM13.7109 29.4706C14.8971 20.9261 22.2651 14.3457 31.1788 14.3457C40.0927 14.3457 47.4607 20.9261 48.6467 29.4706C43.4283 30.3689 37.4854 30.8774 31.1788 30.8774C24.8724 30.8774 18.9293 30.3689 13.7109 29.4706Z" fill="#656668"/>
<path d="M43.9565 33.6378C43.1007 39.8989 37.7068 44.7245 31.179 44.7245C24.6515 44.7245 19.2576 39.8989 18.4016 33.6378C22.3904 33.166 26.6925 32.9077 31.1789 32.9077C35.6654 32.9077 39.9679 33.166 43.9565 33.6378ZM18.4016 30.1473C19.2576 23.886 24.6516 19.0605 31.179 19.0605C37.7067 19.0605 43.1007 23.886 43.9565 30.1473C39.9679 30.6191 35.6654 30.8759 31.1789 30.8759C26.6925 30.8759 22.3904 30.6191 18.4016 30.1473Z" fill="#231F20"/>
</svg>
