<svg  viewBox="0 0 65 65" fill="none" xmlns="http://www.w3.org/2000/svg">
<g id="icon">
<g id="Vector">
<path d="M32.3528 37.204C37.9396 37.204 42.4687 32.7047 42.4687 27.1546C42.4687 21.6045 37.9396 17.1053 32.3528 17.1053C26.7659 17.1053 22.2369 21.6045 22.2369 27.1546C22.2369 32.7047 26.7659 37.204 32.3528 37.204Z" fill="white"/>
<path d="M32.3528 37.204C37.9396 37.204 42.4687 32.7047 42.4687 27.1546C42.4687 21.6045 37.9396 17.1053 32.3528 17.1053C26.7659 17.1053 22.2369 21.6045 22.2369 27.1546C22.2369 32.7047 26.7659 37.204 32.3528 37.204Z" stroke="black" stroke-width="3" stroke-linejoin="round"/>
<path d="M32.5 62.2917C48.9535 62.2917 62.2917 48.9535 62.2917 32.5C62.2917 16.0465 48.9535 2.70834 32.5 2.70834C16.0466 2.70834 2.70837 16.0465 2.70837 32.5C2.70837 48.9535 16.0466 62.2917 32.5 62.2917Z" stroke="black" stroke-width="3" stroke-linejoin="round"/>
<path d="M17.2214 51.8432C19.1172 45.0724 25.0756 40.1974 32.3881 40.1974C39.7006 40.1974 45.6589 45.0724 47.5547 51.8432" stroke="black" stroke-width="3" stroke-linejoin="round"/>
</g>
</g>
</svg>
