<svg width="65" height="65" viewBox="0 0 40 40" fill="none" xmlns="http://www.w3.org/2000/svg">
<g id="Frame">
<path id="Vector" d="M1.11111 18.8889L10 11.1111L27.7778 12.2222L28.8889 30L21.1111 38.8889C21.1111 38.8889 21.1122 32.2233 14.4444 25.5556C7.77667 18.8878 1.11111 18.8889 1.11111 18.8889Z" fill="#A0041E"/>
<path id="Vector_2" d="M1.08111 38.8889C1.08111 38.8889 1.04111 30.0233 4.39777 26.6667C7.75444 23.31 16.6667 23.5411 16.6667 23.5411C16.6667 23.5411 16.6655 32.2222 13.3322 35.5556C9.99888 38.8889 1.08111 38.8889 1.08111 38.8889Z" fill="#FFAC33"/>
<path id="Vector_3" d="M9.99889 34.4444C12.4535 34.4444 14.4433 32.4546 14.4433 30C14.4433 27.5454 12.4535 25.5556 9.99889 25.5556C7.54429 25.5556 5.55444 27.5454 5.55444 30C5.55444 32.4546 7.54429 34.4444 9.99889 34.4444Z" fill="#FFCC4D"/>
<path id="Vector_4" d="M39.9989 0C39.9989 0 28.8878 0 15.5544 11.1111C8.88778 16.6667 8.88778 26.6667 11.11 28.8889C13.3322 31.1111 23.3322 31.1111 28.8878 24.4444C39.9989 11.1111 39.9989 0 39.9989 0Z" fill="#55ACEE"/>
<path id="Vector_5" d="M29.9989 5.55556C28.1956 5.55556 26.6511 6.63445 25.9533 8.17778C26.5111 7.92556 27.1256 7.77778 27.7767 7.77778C30.2311 7.77778 32.2211 9.76778 32.2211 12.2222C32.2211 12.8733 32.0733 13.4878 31.8222 14.0444C33.3656 13.3478 34.4433 11.8033 34.4433 10C34.4433 7.54556 32.4533 5.55556 29.9989 5.55556Z" fill="black"/>
<path id="Vector_6" d="M8.88889 31.1111C8.88889 31.1111 8.88889 26.6667 10 25.5556C11.1111 24.4444 24.4456 13.3344 25.5556 14.4444C26.6656 15.5544 15.5544 28.8889 14.4433 30C13.3322 31.1111 8.88889 31.1111 8.88889 31.1111Z" fill="#A0041E"/>
</g>
</svg>
