<svg width="253" height="330" viewBox="0 0 253 330" fill="none" xmlns="http://www.w3.org/2000/svg">
<path d="M193.504 157.745C193.504 157.745 200.925 158.203 204.379 154.249C206.148 152.229 210.5 147.964 216.006 145.518C221.512 143.072 215.488 152.962 215.699 153.764C215.974 154.836 226.148 147.886 227.678 150.076C229.209 152.266 230.844 158.207 223.959 164.172C217.073 170.136 195.465 178.731 189.445 178.03C183.426 177.329 185.84 163.393 193.504 157.745Z" fill="#F3ABAA"/>
<path d="M214.723 154.391L210.623 158.262" stroke="#0D0F44" stroke-width="0.916209" stroke-miterlimit="10" stroke-linecap="round"/>
<path d="M39.4066 111.009C39.4066 111.009 37.8307 107.711 37.5741 101.645C37.3359 95.8686 35.9158 85.0115 32.4205 85.0115C30.7667 85.0115 27.2576 86.4728 27.5462 96.8077C27.5462 96.8077 26.7675 100.999 19.5569 93.1978C12.3463 85.3963 9.51067 85.8956 7.3759 87.5402C3.59195 90.4629 -2.56955 97.9758 2.59787 108.892C7.76529 119.809 25.1137 128.591 25.1137 128.591L39.4066 111.009Z" fill="#F3ABAA"/>
<path d="M7.59125 89.4504C7.59125 89.4504 12.9786 95.9784 16.0387 97.6963" stroke="#0D0F44" stroke-width="0.916209" stroke-miterlimit="10" stroke-linecap="round"/>
<path d="M5.3418 93.578C5.3418 93.578 10.7245 100.106 13.7892 101.824" stroke="#0D0F44" stroke-width="0.916209" stroke-miterlimit="10" stroke-linecap="round"/>
<path d="M3.3671 98.498C3.3671 98.498 8.74983 105.017 11.8145 106.744" stroke="#0D0F44" stroke-width="0.916209" stroke-miterlimit="10" stroke-linecap="round"/>
<path d="M3.3671 104.806C5.05955 106.839 6.8562 108.782 8.74982 110.629" stroke="#0D0F44" stroke-width="0.916209" stroke-miterlimit="10" stroke-linecap="round"/>
<path d="M50.2719 264.79L100.37 229.182C101.915 228.084 103.683 227.342 105.549 227.011C107.415 226.68 109.331 226.767 111.159 227.267L189.036 248.463C190.38 248.827 191.605 249.538 192.589 250.523C193.572 251.509 194.279 252.736 194.64 254.081C195 255.426 195.001 256.842 194.642 258.188C194.284 259.533 193.578 260.761 192.596 261.748L128.883 326.089C126.764 328.234 123.924 329.516 120.914 329.685C117.904 329.855 114.938 328.899 112.592 327.005L49.9008 276.188C49.0445 275.491 48.3608 274.606 47.903 273.601C47.4452 272.597 47.2257 271.5 47.2616 270.397C47.2975 269.294 47.5879 268.213 48.1101 267.241C48.6322 266.268 49.3721 265.429 50.2719 264.79V264.79Z" fill="#0D0F44"/>
<path d="M194.575 247.258L194.913 257.428L189.938 261.666L194.575 247.258Z" fill="#0D0F44"/>
<path d="M47.2623 263.997V271.634L54.9218 275.633L47.2623 263.997Z" fill="#0D0F44"/>
<path d="M50.2727 258.175L100.371 222.562C101.915 221.464 103.684 220.723 105.55 220.392C107.416 220.061 109.332 220.148 111.159 220.647L189.037 241.844C190.381 242.207 191.606 242.918 192.589 243.904C193.573 244.89 194.28 246.117 194.64 247.462C195.001 248.807 195.002 250.223 194.643 251.568C194.284 252.914 193.579 254.141 192.597 255.129L128.883 319.469C126.762 321.611 123.921 322.889 120.91 323.054C117.9 323.219 114.936 322.26 112.593 320.363L49.9017 269.568C49.0462 268.871 48.3633 267.986 47.906 266.982C47.4488 265.978 47.2295 264.882 47.2655 263.78C47.3014 262.677 47.5914 261.597 48.1131 260.625C48.6347 259.653 49.3738 258.815 50.2727 258.175Z" fill="#22319E"/>
<path d="M180.181 256.507L157.276 279.628L156.515 276.421C155.347 271.24 151.701 254.785 148.521 237.569L177.181 245.357C178.31 245.661 179.339 246.256 180.166 247.083C180.993 247.91 181.588 248.939 181.892 250.068C182.196 251.197 182.198 252.386 181.897 253.517C181.597 254.647 181.005 255.678 180.181 256.507V256.507Z" fill="#DADEEB"/>
<path d="M90.5941 291.685L92.0463 294.223L60.46 268.629C59.7421 268.045 59.169 267.302 58.7854 266.46C58.4018 265.617 58.2182 264.698 58.2488 263.773C58.2794 262.847 58.5234 261.942 58.9618 261.127C59.4002 260.311 60.0212 259.609 60.7761 259.073L75.5454 248.578C78.9376 263.463 83.9853 277.923 90.5941 291.685V291.685Z" fill="#DADEEB"/>
<path d="M124.554 46.2192C124.554 46.2192 138.902 43.805 141.619 70.3109C143.703 90.6507 145.636 93.8163 146.232 95.7128C146.827 97.6094 159.64 112.049 155.966 127.111C155.966 127.111 150.249 146.352 132.47 149.581C114.691 152.811 112.593 109.442 112.593 109.442C112.593 109.442 110.174 53.3106 124.554 46.2192Z" fill="#22319E"/>
<path d="M25.2786 226.809C33.9414 226.809 40.9641 219.786 40.9641 211.123C40.9641 202.46 33.9414 195.438 25.2786 195.438C16.6157 195.438 9.59308 202.46 9.59308 211.123C9.59308 219.786 16.6157 226.809 25.2786 226.809Z" fill="#22319E"/>
<path d="M30.8404 210.825L24.798 218.613C24.6967 218.747 24.5606 218.85 24.4044 218.912C24.2483 218.974 24.0783 218.991 23.9128 218.963C23.7474 218.935 23.5929 218.861 23.4662 218.751C23.3396 218.641 23.2457 218.498 23.1947 218.338L19.7452 207.884C19.6913 207.725 19.6822 207.555 19.7187 207.391C19.7552 207.227 19.836 207.076 19.9523 206.955C20.0686 206.834 20.2158 206.748 20.378 206.705C20.5402 206.662 20.7111 206.664 20.8721 206.711L30.3594 209.359C30.5082 209.398 30.6449 209.473 30.757 209.578C30.8691 209.683 30.9529 209.815 31.0008 209.961C31.0487 210.107 31.0591 210.262 31.0311 210.414C31.0031 210.565 30.9375 210.706 30.8404 210.825Z" fill="white"/>
<path d="M248.073 110.221L205.863 123.479C205.162 123.699 204.424 123.779 203.692 123.714C202.959 123.649 202.247 123.44 201.595 123.1C200.943 122.76 200.365 122.294 199.893 121.73C199.421 121.166 199.065 120.515 198.845 119.814L190.407 92.9459C189.979 91.5851 190.087 90.1124 190.709 88.8285C191.33 87.5446 192.418 86.5464 193.751 86.0377L235.471 70.0957C236.284 69.8399 237.14 69.7471 237.99 69.8223C238.839 69.8976 239.666 70.1396 240.422 70.5344C241.178 70.9292 241.849 71.4691 242.396 72.1233C242.943 72.7774 243.356 73.533 243.611 74.3469L252.315 102.076C252.832 103.719 252.676 105.499 251.88 107.027C251.085 108.554 249.715 109.703 248.073 110.221V110.221Z" fill="#22319E"/>
<path d="M228.613 100.331L222.781 102.699L215.355 96.9268L216.217 90.6966C216.262 90.3815 216.388 90.0836 216.583 89.8321C216.778 89.5807 217.036 89.3845 217.33 89.2627L230.761 83.8021C230.874 83.7568 230.996 83.7418 231.117 83.7587C231.237 83.7757 231.35 83.8239 231.446 83.8987C231.542 83.9734 231.616 84.072 231.661 84.1845C231.707 84.297 231.722 84.4195 231.705 84.5397L229.721 98.9013C229.676 99.215 229.55 99.5117 229.356 99.7622C229.161 100.013 228.905 100.209 228.613 100.331V100.331Z" stroke="white" stroke-width="1.83242" stroke-miterlimit="10" stroke-linecap="round"/>
<path d="M222.818 102.726L218.003 108.915C217.513 109.543 216.469 109.548 215.667 108.915L211.114 105.37C210.312 104.747 210.06 103.73 210.546 103.102L215.356 96.9268L222.818 102.726Z" stroke="white" stroke-width="1.83242" stroke-miterlimit="10" stroke-linecap="round"/>
<path d="M231.448 83.8983L224.485 92.8543" stroke="white" stroke-width="1.83242" stroke-miterlimit="10" stroke-linecap="round"/>
<path d="M222.927 97.4582C224.344 97.4582 225.493 96.3096 225.493 94.8928C225.493 93.476 224.344 92.3274 222.927 92.3274C221.511 92.3274 220.362 93.476 220.362 94.8928C220.362 96.3096 221.511 97.4582 222.927 97.4582Z" stroke="white" stroke-width="1.83242" stroke-miterlimit="10" stroke-linecap="round"/>
<path d="M157.286 279.628L126.721 310.495C124.942 312.292 122.558 313.363 120.032 313.501C117.507 313.639 115.021 312.834 113.056 311.242L92.0473 294.223L90.5951 291.685C83.9863 277.923 78.9386 263.463 75.5464 248.578C68.5924 218.604 69.7285 195.653 69.7285 195.653L143.24 195.754C142.961 204.54 145.531 221.407 148.532 237.569C151.711 254.785 155.357 271.24 156.526 276.421L157.286 279.628Z" fill="#0D0F44"/>
<path d="M98.2178 228.879L104.805 231.399C104.805 231.399 105.002 252.293 129.286 305.873" stroke="#DADEEB" stroke-width="0.916209" stroke-miterlimit="10" stroke-linecap="round"/>
<path d="M104.897 99.5425C104.897 99.5425 85.1981 100.66 77.8685 114.939C68.8759 132.347 58.0783 130.231 43.0021 112.255C42.4455 111.589 41.672 111.14 40.8175 110.988C39.963 110.835 39.0821 110.989 38.3295 111.421C32.7406 114.628 21.1276 122.704 26.5333 131.761C33.5423 143.498 54.7433 168.029 72.8018 166.627C72.8018 166.627 69.563 187.068 69.7646 195.653C69.7646 195.653 80.8736 209.689 108.539 209.084C136.203 208.48 143.277 195.754 143.277 195.754C143.277 195.754 143.579 174.75 144.491 169.298C144.491 169.298 162.696 182.908 189.481 178.039C189.481 178.039 185.908 165.702 193.54 157.745C193.54 157.745 167.075 150.438 164.157 146.379C161.239 142.32 153.195 119.713 151.6 116.332C149.516 111.902 143.354 104.476 131.508 100.903C119.661 97.3299 104.897 99.5425 104.897 99.5425Z" fill="#FF2633"/>
<path d="M82.175 117.761C82.175 117.761 76.0914 135.243 73.077 163.549" stroke="#DADEEB" stroke-width="0.916209" stroke-miterlimit="10" stroke-linecap="round"/>
<path d="M125.314 128.586C125.314 128.586 130.59 146.242 134.316 156.5C135.528 159.838 136.576 162.393 137.225 163.302C139.868 167.003 144.449 169.298 144.449 169.298" stroke="white" stroke-width="0.916209" stroke-miterlimit="10" stroke-linecap="round"/>
<path d="M188.607 156.329C188.607 156.329 180.75 160.406 184.136 176.742" stroke="white" stroke-width="0.916209" stroke-miterlimit="10" stroke-linecap="round"/>
<path d="M45.0778 114.678C45.0778 114.678 35.2423 119.571 30.4825 128.586" stroke="white" stroke-width="0.916209" stroke-miterlimit="10" stroke-linecap="round"/>
<path d="M99.8072 51.0704C99.8072 51.0704 91.2315 54.9643 97.2968 68.8128L104.878 55.4362L99.8072 51.0704Z" fill="#22319E"/>
<path d="M127.44 78.2865C127.44 78.2865 123.052 100.578 123.052 102.387C123.052 104.197 111.004 107.055 104.233 101.471C104.233 101.471 109.272 86.8989 110.161 83.2523C111.049 79.6058 121.141 75.5654 127.44 78.2865Z" fill="#F3ABAA"/>
<path d="M127.44 78.2865L109.006 87.1691C108.36 89.2031 107.563 91.6265 106.784 93.917C106.784 93.917 123.042 96.487 127.44 78.2865Z" fill="#0D0F44"/>
<path d="M129.872 69.5962C129.872 79.1294 122.57 89.4459 113.559 89.4459C102.592 89.4459 96.5637 82.9454 97.2417 69.5962C97.7273 60.1272 104.548 52.344 113.559 52.344C122.57 52.344 129.872 60.0676 129.872 69.5962Z" fill="#F3ABAA"/>
<path d="M122.3 69.9581C112.593 70.8972 99.7569 63.3889 99.8073 51.0705C99.8577 38.752 111.15 38.2939 112.859 38.2939C114.567 38.2939 129.497 40.5478 134.074 55.4729C138.65 70.3979 126.368 69.5642 122.3 69.9581Z" fill="#22319E"/>
<path d="M131.002 77.0118C134.446 75.0231 136.253 71.7041 135.037 69.5985C133.822 67.4928 130.044 67.398 126.6 69.3866C123.155 71.3752 121.349 74.6943 122.564 76.7999C123.78 78.9055 127.558 79.0004 131.002 77.0118Z" fill="#F3ABAA"/>
<path d="M113.303 82.8538C113.303 82.8538 117.064 83.3348 118.599 80.041" stroke="#0D0F44" stroke-width="0.916209" stroke-miterlimit="10" stroke-linecap="round"/>
<path d="M127.422 73.9574L132.543 71.7448" stroke="#0D0F44" stroke-width="0.916209" stroke-miterlimit="10" stroke-linecap="round"/>
<path d="M106.133 71.5935L105.075 76.1058C105.045 76.2368 105.041 76.3726 105.066 76.5048C105.09 76.637 105.142 76.7628 105.217 76.8742C105.292 76.9856 105.39 77.0803 105.503 77.1522C105.617 77.2242 105.744 77.2719 105.877 77.2923L106.963 77.4664" stroke="#0D0F44" stroke-width="0.916209" stroke-miterlimit="10" stroke-linecap="round"/>
<path d="M103.164 69.4933C103.32 68.187 102.902 67.0626 102.228 66.9819C101.555 66.9011 100.882 67.8946 100.726 69.2009C100.569 70.5071 100.988 71.6315 101.661 71.7123C102.334 71.793 103.007 70.7996 103.164 69.4933Z" fill="#0D0F44"/>
<path d="M112.595 71.1148C112.752 69.8085 112.333 68.6841 111.66 68.6033C110.986 68.5226 110.314 69.5161 110.157 70.8223C110 72.1286 110.419 73.253 111.092 73.3337C111.765 73.4145 112.438 72.421 112.595 71.1148Z" fill="#0D0F44"/>
<path d="M52.6546 14.949C51.9948 11.746 50.5078 8.77166 48.3416 6.32186C46.1753 3.87205 43.4053 2.03221 40.3071 0.985398C37.209 -0.0614141 33.8908 -0.278702 30.6826 0.355153C27.4744 0.989009 24.4881 2.45191 22.0208 4.5983C19.5536 6.74469 17.6914 9.49973 16.6196 12.5893C15.5477 15.6789 15.3036 18.9953 15.9115 22.2085C16.5194 25.4217 17.9581 28.4197 20.0845 30.9042C22.2108 33.3888 24.9507 35.2732 28.0315 36.3699C28.7268 36.623 29.345 37.051 29.8265 37.6128C30.308 38.1745 30.6364 38.8509 30.7801 39.5767L31.2382 41.7252C31.4423 42.7116 31.8387 43.6481 32.4048 44.4813C32.9709 45.3144 33.6956 46.0279 34.5375 46.5809C35.3794 47.134 36.322 47.5157 37.3114 47.7044C38.3009 47.8931 39.3178 47.885 40.3041 47.6805V47.6805C41.2905 47.4765 42.227 47.0801 43.0602 46.514C43.8934 45.9479 44.6068 45.2232 45.1599 44.3813C45.7129 43.5394 46.0947 42.5968 46.2833 41.6074C46.472 40.6179 46.4639 39.601 46.2595 38.6147L45.8014 36.4845C45.6479 35.7656 45.681 35.0194 45.8975 34.317C46.114 33.6145 46.5067 32.9792 47.0383 32.4715C49.4059 30.283 51.1674 27.5194 52.1515 24.449C53.1356 21.3787 53.3089 18.1061 52.6546 14.949V14.949Z" fill="#FFD550"/>
<path d="M34.7602 37.4876L45.7089 35.2246" stroke="#FF2633" stroke-width="2.29052" stroke-miterlimit="10" stroke-linecap="round"/>
<path d="M36.2769 3.88123C36.2769 3.88123 44.0234 5.04481 46.2635 11.8522" stroke="white" stroke-width="1.83242" stroke-miterlimit="10" stroke-linecap="round"/>
<path d="M13.4592 6.72595C13.4592 6.72595 7.22895 13.7487 10.6602 24.3355" stroke="#FF2633" stroke-width="2.29052" stroke-miterlimit="10" stroke-linecap="round"/>
<path d="M7.49887 1.9342C7.49887 1.9342 -1.66323 12.2736 3.37592 27.8629" stroke="#FF2633" stroke-width="2.29052" stroke-miterlimit="10" stroke-linecap="round"/>
</svg>
