<svg  viewBox="0 0 24 24" fill="none" xmlns="http://www.w3.org/2000/svg">
<g id="Property 1=Settings" clip-path="url(#clip0_31_172)">
<path id="Vector" d="M12.155 14.9815C13.8119 14.9815 15.155 13.6384 15.155 11.9815C15.155 10.3247 13.8119 8.98154 12.155 8.98154C10.4982 8.98154 9.15503 10.3247 9.15503 11.9815C9.15503 13.6384 10.4982 14.9815 12.155 14.9815Z" stroke="#181818" stroke-width="2" stroke-linecap="round" stroke-linejoin="round"/>
<path id="Vector_2" d="M19.555 14.9815C19.4219 15.2832 19.3822 15.6177 19.441 15.9421C19.4998 16.2665 19.6545 16.5659 19.885 16.8015L19.945 16.8615C20.131 17.0473 20.2785 17.2679 20.3791 17.5107C20.4798 17.7535 20.5316 18.0137 20.5316 18.2765C20.5316 18.5394 20.4798 18.7996 20.3791 19.0424C20.2785 19.2852 20.131 19.5058 19.945 19.6915C19.7593 19.8775 19.5387 20.025 19.2959 20.1257C19.0531 20.2263 18.7929 20.2781 18.53 20.2781C18.2672 20.2781 18.0069 20.2263 17.7641 20.1257C17.5214 20.025 17.3008 19.8775 17.115 19.6915L17.055 19.6315C16.8193 19.401 16.52 19.2464 16.1956 19.1875C15.8712 19.1287 15.5366 19.1684 15.235 19.3015C14.9393 19.4283 14.687 19.6388 14.5093 19.9071C14.3317 20.1754 14.2363 20.4898 14.235 20.8115V20.9815C14.235 21.512 14.0243 22.0207 13.6492 22.3958C13.2742 22.7708 12.7655 22.9815 12.235 22.9815C11.7046 22.9815 11.1959 22.7708 10.8208 22.3958C10.4457 22.0207 10.235 21.512 10.235 20.9815V20.8915C10.2273 20.5605 10.1201 20.2395 9.92754 19.9702C9.73493 19.7009 9.46576 19.4958 9.15503 19.3815C8.85341 19.2484 8.51884 19.2087 8.19444 19.2675C7.87005 19.3264 7.57071 19.481 7.33503 19.7115L7.27503 19.7715C7.08928 19.9575 6.86871 20.105 6.62591 20.2057C6.38311 20.3063 6.12286 20.3581 5.86003 20.3581C5.5972 20.3581 5.33694 20.3063 5.09415 20.2057C4.85135 20.105 4.63078 19.9575 4.44503 19.7715C4.25908 19.5858 4.11156 19.3652 4.01091 19.1224C3.91026 18.8796 3.85846 18.6194 3.85846 18.3565C3.85846 18.0937 3.91026 17.8335 4.01091 17.5907C4.11156 17.3479 4.25908 17.1273 4.44503 16.9415L4.50503 16.8815C4.73557 16.6459 4.89021 16.3465 4.94903 16.0221C5.00785 15.6977 4.96814 15.3632 4.83503 15.0615C4.70827 14.7658 4.49778 14.5135 4.22949 14.3358C3.9612 14.1582 3.64682 14.0628 3.32503 14.0615H3.15503C2.6246 14.0615 2.11589 13.8508 1.74082 13.4757C1.36574 13.1007 1.15503 12.592 1.15503 12.0615C1.15503 11.5311 1.36574 11.0224 1.74082 10.6473C2.11589 10.2723 2.6246 10.0615 3.15503 10.0615H3.24503C3.57602 10.0538 3.89703 9.94666 4.16633 9.75405C4.43562 9.56144 4.64074 9.29227 4.75503 8.98154C4.88814 8.67992 4.92785 8.34534 4.86903 8.02095C4.81021 7.69655 4.65557 7.39722 4.42503 7.16154L4.36503 7.10154C4.17908 6.91579 4.03156 6.69521 3.93091 6.45242C3.83026 6.20962 3.77846 5.94937 3.77846 5.68654C3.77846 5.42371 3.83026 5.16345 3.93091 4.92066C4.03156 4.67786 4.17908 4.45728 4.36503 4.27154C4.55078 4.08558 4.77135 3.93807 5.01415 3.83742C5.25694 3.73677 5.5172 3.68496 5.78003 3.68496C6.04286 3.68496 6.30311 3.73677 6.54591 3.83742C6.78871 3.93807 7.00928 4.08558 7.19503 4.27154L7.25503 4.33154C7.49071 4.56207 7.79005 4.71672 8.11444 4.77554C8.43884 4.83436 8.77341 4.79465 9.07503 4.66154H9.15503C9.4508 4.53477 9.70305 4.32429 9.88072 4.056C10.0584 3.78771 10.1537 3.47332 10.155 3.15154V2.98154C10.155 2.4511 10.3657 1.9424 10.7408 1.56732C11.1159 1.19225 11.6246 0.981537 12.155 0.981537C12.6855 0.981537 13.1942 1.19225 13.5692 1.56732C13.9443 1.9424 14.155 2.4511 14.155 2.98154V3.07154C14.1563 3.39332 14.2517 3.70771 14.4293 3.976C14.607 4.24429 14.8593 4.45477 15.155 4.58154C15.4566 4.71465 15.7912 4.75436 16.1156 4.69554C16.44 4.63672 16.7393 4.48207 16.975 4.25154L17.035 4.19154C17.2208 4.00558 17.4414 3.85807 17.6841 3.75742C17.9269 3.65677 18.1872 3.60496 18.45 3.60496C18.7129 3.60496 18.9731 3.65677 19.2159 3.75742C19.4587 3.85807 19.6793 4.00558 19.865 4.19154C20.051 4.37728 20.1985 4.59786 20.2991 4.84066C20.3998 5.08345 20.4516 5.34371 20.4516 5.60654C20.4516 5.86937 20.3998 6.12962 20.2991 6.37242C20.1985 6.61521 20.051 6.83579 19.865 7.02154L19.805 7.08154C19.5745 7.31722 19.4198 7.61655 19.361 7.94095C19.3022 8.26534 19.3419 8.59992 19.475 8.90154V8.98154C19.6018 9.27731 19.8123 9.52955 20.0806 9.70723C20.3489 9.88491 20.6632 9.98025 20.985 9.98154H21.155C21.6855 9.98154 22.1942 10.1923 22.5692 10.5673C22.9443 10.9424 23.155 11.4511 23.155 11.9815C23.155 12.512 22.9443 13.0207 22.5692 13.3958C22.1942 13.7708 21.6855 13.9815 21.155 13.9815H21.065C20.7432 13.9828 20.4289 14.0782 20.1606 14.2558C19.8923 14.4335 19.6818 14.6858 19.555 14.9815Z" stroke="#181818" stroke-width="2" stroke-linecap="round" stroke-linejoin="round"/>
</g>
<defs>
<clipPath id="clip0_31_172">
<rect width="24" height="24" fill="white"/>
</clipPath>
</defs>
</svg>
